<svg width="100" height="100" viewBox="0 0 100 100" fill="none" xmlns="http://www.w3.org/2000/svg">
<rect width="100" height="100" rx="50" fill="white"/>
<mask id="mask0_126_135" style="mask-type:luminance" maskUnits="userSpaceOnUse" x="3" y="3" width="94" height="94">
<path d="M3 3H97V96.9999H3V3Z" fill="white"/>
</mask>
<g mask="url(#mask0_126_135)">
<mask id="mask1_126_135" style="mask-type:luminance" maskUnits="userSpaceOnUse" x="3" y="3" width="94" height="95">
<path d="M49.9955 3C24.0376 3 3 24.0913 3 50.1042C3 76.1171 24.0376 97.1993 49.9955 97.1993C75.9624 97.1993 97 76.1171 97 50.1042C97 24.0913 75.9624 3 49.9955 3Z" fill="white"/>
</mask>
<g mask="url(#mask1_126_135)">
<path d="M3 3H97V97.1993H3V3Z" fill="white"/>
</g>
</g>
<path d="M49.344 28.1881C44.4509 28.1881 39.8382 30.0099 36.2566 33.3816C32.3674 37.0343 30.2239 41.9831 30.2239 47.3126C30.2239 51.645 31.6258 55.7237 34.2939 59.1136C37.9389 63.7542 39.8744 69.129 39.8744 74.6488V78.0114C39.8744 78.5824 40.3266 79.0356 40.8964 79.0356H57.8459C58.3614 79.0356 58.7775 78.6187 58.7775 78.1111V74.7213C58.7775 69.1652 60.7221 63.6907 64.2585 59.322C67.2432 55.615 68.7446 50.9381 68.4642 46.1615C67.9034 36.6899 60.0437 28.8135 50.5741 28.2244C50.158 28.2062 49.751 28.1881 49.344 28.1881ZM57.8459 81.7366H40.8964C38.8433 81.7366 37.1701 80.0689 37.1701 78.0114V74.6488C37.1701 69.7362 35.4426 64.9415 32.1684 60.7813C29.1295 56.9111 27.5195 52.2523 27.5195 47.3126C27.5195 41.3215 30.0249 35.5207 34.4024 31.4148C38.8343 27.2455 44.6409 25.1608 50.7369 25.5324C61.7351 26.2122 70.5083 35.0131 71.1595 46.0074C71.476 51.4547 69.7757 56.7842 66.3568 61.0169C63.2093 64.9053 61.4728 69.7816 61.4728 74.7213V78.1111C61.4728 80.1142 59.8447 81.7366 57.8459 81.7366Z" fill="#3A8EFF"/>
<path d="M58.7592 85.2988H39.9646C39.2139 85.2988 38.6079 84.7006 38.6079 83.9483C38.6079 83.205 39.2139 82.5978 39.9646 82.5978H58.7592C59.5008 82.5978 60.1068 83.205 60.1068 83.9483C60.1068 84.7006 59.5008 85.2988 58.7592 85.2988Z" fill="#3A8EFF"/>
<path d="M58.7592 88.897H39.9646C39.2139 88.897 38.6079 88.2988 38.6079 87.5465C38.6079 86.8033 39.2139 86.2051 39.9646 86.2051H58.7592C59.5008 86.2051 60.1068 86.8033 60.1068 87.5465C60.1068 88.2988 59.5008 88.897 58.7592 88.897Z" fill="#3A8EFF"/>
<path d="M58.7592 92.4953H39.9646C39.2139 92.4953 38.6079 91.8971 38.6079 91.1448C38.6079 90.4016 39.2139 89.8033 39.9646 89.8033H58.7592C59.5008 89.8033 60.1068 90.4016 60.1068 91.1448C60.1068 91.8971 59.5008 92.4953 58.7592 92.4953Z" fill="#3A8EFF"/>
<mask id="mask2_126_135" style="mask-type:luminance" maskUnits="userSpaceOnUse" x="41" y="93" width="17" height="4">
<path d="M41.0957 93.583H57.6201V97H41.0957V93.583Z" fill="white"/>
</mask>
<g mask="url(#mask2_126_135)">
<path d="M56.4081 97.0634H42.3167L41.1138 93.592H57.602L56.4081 97.0634Z" fill="#3A8EFF"/>
</g>
<path d="M49.3621 19.6591C48.6114 19.6591 48.0054 19.0609 48.0054 18.3086V4.3505C48.0054 3.60727 48.6114 3 49.3621 3C50.1037 3 50.7097 3.60727 50.7097 4.3505V18.3086C50.7097 19.0609 50.1037 19.6591 49.3621 19.6591Z" fill="#3A8EFF"/>
<path d="M71.3043 28.75C70.9606 28.75 70.6169 28.614 70.3456 28.3512C69.821 27.8255 69.821 26.9735 70.3456 26.4478L80.2313 16.5683C80.7559 16.0426 81.606 16.0426 82.1397 16.5683C82.6643 17.094 82.6643 17.9551 82.1397 18.4808L72.254 28.3512C71.9917 28.614 71.648 28.75 71.3043 28.75Z" fill="#3A8EFF"/>
<mask id="mask3_126_135" style="mask-type:luminance" maskUnits="userSpaceOnUse" x="79" y="47" width="17" height="4">
<path d="M79.0371 47.9742H95.7153V50.6843H79.0371V47.9742Z" fill="white"/>
</mask>
<g mask="url(#mask3_126_135)">
<path d="M94.3679 50.6843H80.394C79.6524 50.6843 79.0464 50.077 79.0464 49.3338C79.0464 48.5905 79.6524 47.9833 80.394 47.9833H94.3679C95.1095 47.9833 95.7155 48.5905 95.7155 49.3338C95.7155 50.077 95.1095 50.6843 94.3679 50.6843Z" fill="#3A8EFF"/>
</g>
<path d="M81.181 82.4888C80.8373 82.4888 80.4936 82.3619 80.2313 82.09L70.3456 72.2196C69.821 71.6939 69.821 70.8419 70.3456 70.3162C70.8792 69.7815 71.7294 69.7815 72.263 70.3162L82.1397 80.1866C82.6643 80.7123 82.6643 81.5643 82.1397 82.09C81.8774 82.3619 81.5247 82.4888 81.181 82.4888Z" fill="#3A8EFF"/>
<path d="M17.5338 82.4888C17.1901 82.4888 16.8464 82.3619 16.5751 82.09C16.0505 81.5643 16.0505 80.7123 16.5751 80.1866L26.4608 70.3162C26.9854 69.7815 27.8355 69.7815 28.3692 70.3162C28.8938 70.8419 28.8938 71.6939 28.3692 72.2196L18.4835 82.09C18.2212 82.3619 17.8775 82.4888 17.5338 82.4888Z" fill="#3A8EFF"/>
<mask id="mask4_126_135" style="mask-type:luminance" maskUnits="userSpaceOnUse" x="3" y="47" width="19" height="5">
<path d="M3 47.0861H21.686V51.7267H3V47.0861Z" fill="white"/>
</mask>
<g mask="url(#mask4_126_135)">
<path d="M18.3215 50.6844H4.34764C3.60598 50.6844 3 50.0771 3 49.3339C3 48.5907 3.60598 47.9834 4.34764 47.9834H18.3215C19.0722 47.9834 19.6691 48.5907 19.6691 49.3339C19.6691 50.0771 19.0722 50.6844 18.3215 50.6844Z" fill="#3A8EFF"/>
</g>
<path d="M27.4104 28.75C27.0668 28.75 26.7231 28.614 26.4608 28.3512L16.5751 18.4808C16.0505 17.9551 16.0505 17.094 16.5751 16.5683C17.1087 16.0426 17.9589 16.0426 18.4835 16.5683L28.3692 26.4478C28.8938 26.9735 28.8938 27.8255 28.3692 28.3512C28.1069 28.614 27.7541 28.75 27.4104 28.75Z" fill="#3A8EFF"/>
<path d="M48.7285 56.4307V79.4435" stroke="#3A8EFF" stroke-width="1.32647"/>
<path d="M40.6699 69.1653H57.8908" stroke="#3A8EFF" stroke-width="1.32091"/>
<mask id="mask5_126_135" style="mask-type:luminance" maskUnits="userSpaceOnUse" x="47" y="56" width="11" height="8">
<path d="M47.5806 56.4307H57.204V63.6998H47.5806V56.4307Z" fill="white"/>
</mask>
<g mask="url(#mask5_126_135)">
<mask id="mask6_126_135" style="mask-type:luminance" maskUnits="userSpaceOnUse" x="47" y="56" width="11" height="8">
<path d="M56.9779 61.2707C57.1045 60.8991 57.1859 60.4731 57.1859 60.0562C57.1859 59.6483 57.1135 59.2404 56.9869 58.8779C56.9869 58.8688 56.9869 58.8597 56.9779 58.8507C56.4804 57.4639 55.1418 56.4488 53.5681 56.4307H47.5806V63.6998H53.559C55.1509 63.6726 56.4804 62.6756 56.9779 61.2707Z" fill="white"/>
</mask>
<g mask="url(#mask6_126_135)">
<path d="M47.5806 63.6998V56.4307H57.204V63.6998H47.5806Z" fill="white"/>
</g>
</g>
<mask id="mask7_126_135" style="mask-type:luminance" maskUnits="userSpaceOnUse" x="47" y="56" width="11" height="8">
<path d="M47.5806 56.5032H57.0502V63.6998H47.5806V56.5032Z" fill="white"/>
</mask>
<g mask="url(#mask7_126_135)">
<mask id="mask8_126_135" style="mask-type:luminance" maskUnits="userSpaceOnUse" x="47" y="56" width="11" height="8">
<path d="M56.8422 61.2979C56.9688 60.9263 57.0502 60.5093 57.0502 60.1015C57.0502 59.6845 56.9779 59.2948 56.8603 58.9232C56.8512 58.9232 56.8512 58.9141 56.8512 58.9051C56.3538 57.5364 55.0333 56.5213 53.4776 56.5032H47.5806V63.6998H53.4776C55.0423 63.6726 56.3628 62.6846 56.8422 61.2979Z" fill="white"/>
</mask>
<g mask="url(#mask8_126_135)">
<path d="M56.8422 61.2978C56.9688 60.9262 57.0502 60.5093 57.0502 60.1014C57.0502 59.6845 56.9778 59.2947 56.8602 58.9231C56.8512 58.9231 56.8512 58.9141 56.8512 58.905C56.3538 57.5364 55.0333 56.5213 53.4776 56.5031H47.5806V63.6997H53.4776C55.0423 63.6725 56.3628 62.6846 56.8422 61.2978Z" stroke="#3A8EFF" stroke-width="1.94432"/>
</g>
</g>
</svg>
